<svg width="24" height="22" viewBox="0 0 24 22" fill="none" xmlns="http://www.w3.org/2000/svg">
<g filter="url(#filter0_d)">
<path d="M12.0938 13.7734C12.0938 13.8766 12.1734 13.9609 12.2695 13.9609H16.6055C16.7016 13.9609 16.7812 13.8766 16.7812 13.7734V12.6484C16.7812 12.5453 16.7016 12.4609 16.6055 12.4609H12.2695C12.1734 12.4609 12.0938 12.5453 12.0938 12.6484V13.7734ZM7.52578 13.9164L12.0258 10.143C12.1148 10.068 12.1148 9.92969 12.0258 9.85469L7.52578 6.08359C7.49862 6.06049 7.46539 6.04567 7.43005 6.04089C7.39472 6.03611 7.35875 6.04157 7.32642 6.05662C7.29409 6.07168 7.26677 6.09569 7.24768 6.12581C7.22859 6.15594 7.21855 6.1909 7.21875 6.22656V7.69609C7.21875 7.75234 7.24219 7.80391 7.28672 7.83906L9.86016 10L7.28672 12.1609C7.26577 12.1785 7.24885 12.2003 7.23712 12.225C7.22539 12.2497 7.21912 12.2766 7.21875 12.3039V13.7734C7.21875 13.9328 7.40391 14.0195 7.52578 13.9164ZM20.625 0.625H3.375C2.96016 0.625 2.625 0.960156 2.625 1.375V18.625C2.625 19.0398 2.96016 19.375 3.375 19.375H20.625C21.0398 19.375 21.375 19.0398 21.375 18.625V1.375C21.375 0.960156 21.0398 0.625 20.625 0.625ZM19.6875 17.6875H4.3125V2.3125H19.6875V17.6875Z" fill="#0593FB"/>
</g>
<defs>
<filter id="filter0_d" x="-1.375" y="0.625" width="26.75" height="26.75" filterUnits="userSpaceOnUse" color-interpolation-filters="sRGB">
<feFlood flood-opacity="0" result="BackgroundImageFix"/>
<feColorMatrix in="SourceAlpha" type="matrix" values="0 0 0 0 0 0 0 0 0 0 0 0 0 0 0 0 0 0 127 0"/>
<feOffset dy="4"/>
<feGaussianBlur stdDeviation="2"/>
<feColorMatrix type="matrix" values="0 0 0 0 0 0 0 0 0 0 0 0 0 0 0 0 0 0 0.25 0"/>
<feBlend mode="normal" in2="BackgroundImageFix" result="effect1_dropShadow"/>
<feBlend mode="normal" in="SourceGraphic" in2="effect1_dropShadow" result="shape"/>
</filter>
</defs>
</svg>
