<svg width="24" height="25" viewBox="0 0 24 25" fill="none" xmlns="http://www.w3.org/2000/svg">
<g filter="url(#filter0_d)">
<path d="M12 1.125C7.65117 1.125 4.125 4.65117 4.125 9C4.125 13.3488 7.65117 16.875 12 16.875C16.3488 16.875 19.875 13.3488 19.875 9C19.875 4.65117 16.3488 1.125 12 1.125ZM15.4014 6.42832L11.6994 11.5611C11.6477 11.6334 11.5795 11.6922 11.5004 11.7328C11.4214 11.7734 11.3339 11.7946 11.245 11.7946C11.1562 11.7946 11.0686 11.7734 10.9896 11.7328C10.9106 11.6922 10.8424 11.6334 10.7906 11.5611L8.59863 8.52363C8.53184 8.43047 8.59863 8.30039 8.71289 8.30039H9.5373C9.7166 8.30039 9.88711 8.38652 9.99258 8.53418L11.2441 10.2709L14.0074 6.43887C14.1129 6.29297 14.2816 6.20508 14.4627 6.20508H15.2871C15.4014 6.20508 15.4682 6.33516 15.4014 6.42832Z" fill="#2251CC"/>
</g>
<defs>
<filter id="filter0_d" x="-1" y="0" width="26" height="26" filterUnits="userSpaceOnUse" color-interpolation-filters="sRGB">
<feFlood flood-opacity="0" result="BackgroundImageFix"/>
<feColorMatrix in="SourceAlpha" type="matrix" values="0 0 0 0 0 0 0 0 0 0 0 0 0 0 0 0 0 0 127 0"/>
<feOffset dy="4"/>
<feGaussianBlur stdDeviation="2"/>
<feColorMatrix type="matrix" values="0 0 0 0 0 0 0 0 0 0 0 0 0 0 0 0 0 0 0.25 0"/>
<feBlend mode="normal" in2="BackgroundImageFix" result="effect1_dropShadow"/>
<feBlend mode="normal" in="SourceGraphic" in2="effect1_dropShadow" result="shape"/>
</filter>
</defs>
</svg>
