<svg width="24" height="24" viewBox="0 0 24 24" fill="none" xmlns="http://www.w3.org/2000/svg">
<path d="M12.0938 15.7734C12.0938 15.8766 12.1734 15.9609 12.2695 15.9609H16.6055C16.7016 15.9609 16.7812 15.8766 16.7812 15.7734V14.6484C16.7812 14.5453 16.7016 14.4609 16.6055 14.4609H12.2695C12.1734 14.4609 12.0938 14.5453 12.0938 14.6484V15.7734ZM7.52578 15.9164L12.0258 12.143C12.1148 12.068 12.1148 11.9297 12.0258 11.8547L7.52578 8.08359C7.49862 8.06049 7.46539 8.04567 7.43005 8.04089C7.39472 8.03611 7.35875 8.04157 7.32642 8.05662C7.29409 8.07168 7.26677 8.09569 7.24768 8.12581C7.22859 8.15594 7.21855 8.1909 7.21875 8.22656V9.69609C7.21875 9.75234 7.24219 9.80391 7.28672 9.83906L9.86016 12L7.28672 14.1609C7.26577 14.1785 7.24885 14.2003 7.23712 14.225C7.22539 14.2497 7.21912 14.2766 7.21875 14.3039V15.7734C7.21875 15.9328 7.40391 16.0195 7.52578 15.9164ZM20.625 2.625H3.375C2.96016 2.625 2.625 2.96016 2.625 3.375V20.625C2.625 21.0398 2.96016 21.375 3.375 21.375H20.625C21.0398 21.375 21.375 21.0398 21.375 20.625V3.375C21.375 2.96016 21.0398 2.625 20.625 2.625ZM19.6875 19.6875H4.3125V4.3125H19.6875V19.6875Z" fill="#0593FB"/>
</svg>
