<svg width="48" height="48" viewBox="0 0 48 48" fill="none" xmlns="http://www.w3.org/2000/svg">
<path d="M23.9812 3.5752C12.3891 3.57051 3 12.9549 3 24.5377C3 33.6971 8.87344 41.483 17.0531 44.3424C18.1547 44.6189 17.9859 43.8361 17.9859 43.3018V39.6689C11.625 40.4143 11.3672 36.2049 10.9406 35.5018C10.0781 34.0299 8.03906 33.6549 8.64844 32.9518C10.0969 32.2064 11.5734 33.1393 13.2844 35.6658C14.5219 37.4986 16.9359 37.1893 18.1594 36.8846C18.4266 35.783 18.9984 34.7986 19.7859 34.0346C13.1953 32.8533 10.4484 28.8314 10.4484 24.0502C10.4484 21.7299 11.2125 19.5971 12.7125 17.8768C11.7562 15.0408 12.8016 12.6127 12.9422 12.2518C15.6656 12.008 18.4969 14.2018 18.7172 14.3752C20.2641 13.958 22.0312 13.7377 24.0094 13.7377C25.9969 13.7377 27.7687 13.9674 29.3297 14.3893C29.8594 13.9861 32.4844 12.1018 35.0156 12.3314C35.1516 12.6924 36.1734 15.0643 35.2734 17.8627C36.7922 19.5877 37.5656 21.7393 37.5656 24.0643C37.5656 28.8549 34.8 32.8814 28.1906 34.0439C28.7567 34.6007 29.2062 35.2646 29.5129 35.997C29.8195 36.7294 29.9771 37.5156 29.9766 38.3096V43.583C30.0141 44.0049 29.9766 44.4221 30.6797 44.4221C38.9812 41.6236 44.9578 33.7814 44.9578 24.5424C44.9578 12.9549 35.5641 3.5752 23.9812 3.5752Z" fill="#171F3F"/>
</svg>
