<svg width="32" height="32" viewBox="0 0 32 32" fill="none" xmlns="http://www.w3.org/2000/svg">
<path d="M15.9875 2.3833C8.25937 2.38018 2 8.63643 2 16.3583C2 22.4646 5.91562 27.6552 11.3687 29.5614C12.1031 29.7458 11.9906 29.2239 11.9906 28.8677V26.4458C7.75 26.9427 7.57812 24.1364 7.29375 23.6677C6.71875 22.6864 5.35937 22.4364 5.76562 21.9677C6.73125 21.4708 7.71562 22.0927 8.85625 23.7771C9.68125 24.9989 11.2906 24.7927 12.1062 24.5896C12.2844 23.8552 12.6656 23.1989 13.1906 22.6896C8.79687 21.9021 6.96562 19.2208 6.96562 16.0333C6.96562 14.4864 7.475 13.0646 8.475 11.9177C7.8375 10.0271 8.53437 8.4083 8.62812 8.16768C10.4437 8.00518 12.3312 9.46768 12.4781 9.5833C13.5094 9.30518 14.6875 9.1583 16.0062 9.1583C17.3312 9.1583 18.5125 9.31143 19.5531 9.59268C19.9062 9.32393 21.6562 8.06768 23.3437 8.2208C23.4344 8.46143 24.1156 10.0427 23.5156 11.9083C24.5281 13.0583 25.0437 14.4927 25.0437 16.0427C25.0437 19.2364 23.2 21.9208 18.7937 22.6958C19.1712 23.067 19.4708 23.5096 19.6752 23.9979C19.8797 24.4861 19.9848 25.0102 19.9844 25.5396V29.0552C20.0094 29.3364 19.9844 29.6146 20.4531 29.6146C25.9875 27.7489 29.9719 22.5208 29.9719 16.3614C29.9719 8.63643 23.7094 2.3833 15.9875 2.3833Z" fill="white"/>
</svg>
